<svg width="24" height="24" fill="none" xmlns="http://www.w3.org/2000/svg"><path d="M21.553 4c-.09-.01-.182-.01-.273 0H2.613c-.12.002-.238.02-.353.054l9.633 9.593L21.553 4z" fill="#242424"/><path d="M22.54 4.927l-9.707 9.666a1.333 1.333 0 01-1.88 0L1.333 5c-.03.109-.045.22-.046.333v13.334A1.333 1.333 0 002.62 20h18.667a1.334 1.334 0 001.333-1.333V5.333a1.333 1.333 0 00-.08-.406zM3.533 18.667h-.926v-.954l4.846-4.806.94.94-4.86 4.82zm17.74 0h-.933l-4.86-4.82.94-.94 4.847 4.806.006.954z" fill="#242424"/></svg>